# MagicaVoxel @ Ephtracy

# group
o 

# material
mtllib f1.mtl
usemtl palette

# normals
vn -1 0 0
vn 1 0 0
vn 0 0 1
vn 0 0 -1
vn 0 -1 0
vn 0 1 0

# texcoords
vt 0.779297 0.5
vt 0.958984 0.5
vt 0.966797 0.5
vt 0.994141 0.5

# verts
v -0.9 0.3 0.2
v -0.9 0.3 0.1
v -0.9 0.3 -0.1
v -0.9 0.3 -0.2
v -0.9 0.4 0.2
v -0.9 0.4 0.1
v -0.9 0.4 -0.1
v -0.9 0.4 -0.2
v -0.8 0.1 0.4
v -0.8 0.1 0.2
v -0.8 0.1 -0.2
v -0.8 0.1 -0.4
v -0.8 0.2 0.4
v -0.8 0.2 0.2
v -0.8 0.2 0.1
v -0.8 0.2 -0.1
v -0.8 0.2 -0.2
v -0.8 0.2 -0.4
v -0.8 0.3 0.1
v -0.8 0.3 -0.1
v -0.7 0 0.4
v -0.7 0 0.2
v -0.7 0 -0.2
v -0.7 0 -0.4
v -0.7 0.1 0.4
v -0.7 0.1 0.2
v -0.7 0.1 0.1
v -0.7 0.1 -0.1
v -0.7 0.1 -0.2
v -0.7 0.1 -0.4
v -0.7 0.2 0.4
v -0.7 0.2 0.2
v -0.7 0.2 0.1
v -0.7 0.2 -0.1
v -0.7 0.2 -0.2
v -0.7 0.2 -0.4
v -0.7 0.3 0.4
v -0.7 0.3 0.2
v -0.7 0.3 -0.2
v -0.7 0.3 -0.4
v -0.5 0 0.2
v -0.5 0 -0.2
v -0.5 0.1 0.2
v -0.5 0.1 0.1
v -0.5 0.1 -0.1
v -0.5 0.1 -0.2
v -0.5 0.2 0.2
v -0.5 0.2 0.1
v -0.5 0.2 -0.1
v -0.5 0.2 -0.2
v -0.5 0.3 0.2
v -0.5 0.3 -0.2
v 0.2 0.1 0.4
v 0.2 0.1 0.2
v 0.2 0.1 -0.2
v 0.2 0.1 -0.4
v 0.2 0.2 0.4
v 0.2 0.2 0.2
v 0.2 0.2 -0.2
v 0.2 0.2 -0.4
v 0.3 0 0.4
v 0.3 0 0.2
v 0.3 0 -0.2
v 0.3 0 -0.4
v 0.3 0.1 0.4
v 0.3 0.1 0.2
v 0.3 0.1 0.1
v 0.3 0.1 -0.1
v 0.3 0.1 -0.2
v 0.3 0.1 -0.4
v 0.3 0.2 0.4
v 0.3 0.2 0.2
v 0.3 0.2 0.1
v 0.3 0.2 -0.1
v 0.3 0.2 -0.2
v 0.3 0.2 -0.4
v 0.3 0.3 0.4
v 0.3 0.3 0.2
v 0.3 0.3 -0.2
v 0.3 0.3 -0.4
v 0.6 0 0.4
v 0.6 0 0.3
v 0.6 0 -0.3
v 0.6 0 -0.4
v 0.6 0.1 0.4
v 0.6 0.1 0.3
v 0.6 0.1 -0.3
v 0.6 0.1 -0.4
v 0.7 0 0.3
v 0.7 0 0.1
v 0.7 0 -0.1
v 0.7 0 -0.3
v 0.7 0.1 0.3
v 0.7 0.1 0.1
v 0.7 0.1 -0.1
v 0.7 0.1 -0.3
v -0.8 0.3 0.2
v -0.8 0.3 0.1
v -0.8 0.3 -0.1
v -0.8 0.3 -0.2
v -0.8 0.4 0.2
v -0.8 0.4 0.1
v -0.8 0.4 -0.1
v -0.8 0.4 -0.2
v -0.7 0.2 0.1
v -0.7 0.2 -0.1
v -0.7 0.3 0.1
v -0.7 0.3 -0.1
v -0.6 0 0.4
v -0.6 0 0.2
v -0.6 0 -0.2
v -0.6 0 -0.4
v -0.6 0.1 0.4
v -0.6 0.1 0.2
v -0.6 0.1 0.1
v -0.6 0.1 -0.1
v -0.6 0.1 -0.2
v -0.6 0.1 -0.4
v -0.6 0.2 0.4
v -0.6 0.2 0.2
v -0.6 0.2 0.1
v -0.6 0.2 -0.1
v -0.6 0.2 -0.2
v -0.6 0.2 -0.4
v -0.6 0.3 0.4
v -0.6 0.3 0.2
v -0.6 0.3 -0.2
v -0.6 0.3 -0.4
v -0.5 0.1 0.4
v -0.5 0.1 0.2
v -0.5 0.1 -0.2
v -0.5 0.1 -0.4
v -0.5 0.2 0.4
v -0.5 0.2 0.2
v -0.5 0.2 -0.2
v -0.5 0.2 -0.4
v -0.4 0.2 0.1
v -0.4 0.2 -0.1
v -0.4 0.3 0.1
v -0.4 0.3 -0.1
v -0.1 0.2 0.2
v -0.1 0.2 0.1
v -0.1 0.2 -0.1
v -0.1 0.2 -0.2
v -0.1 0.3 0.2
v -0.1 0.3 0.1
v -0.1 0.3 -0.1
v -0.1 0.3 -0.2
v 0.2 0 0.2
v 0.2 0 0.1
v 0.2 0 -0.1
v 0.2 0 -0.2
v 0.2 0.1 0.2
v 0.2 0.1 -0.2
v 0.2 0.2 0.2
v 0.2 0.2 0.1
v 0.2 0.2 -0.1
v 0.2 0.2 -0.2
v 0.4 0 0.4
v 0.4 0 0.2
v 0.4 0 -0.2
v 0.4 0 -0.4
v 0.4 0.1 0.4
v 0.4 0.1 0.2
v 0.4 0.1 0.1
v 0.4 0.1 -0.1
v 0.4 0.1 -0.2
v 0.4 0.1 -0.4
v 0.4 0.2 0.4
v 0.4 0.2 0.2
v 0.4 0.2 0.1
v 0.4 0.2 -0.1
v 0.4 0.2 -0.2
v 0.4 0.2 -0.4
v 0.4 0.3 0.4
v 0.4 0.3 0.2
v 0.4 0.3 -0.2
v 0.4 0.3 -0.4
v 0.5 0.1 0.4
v 0.5 0.1 0.2
v 0.5 0.1 -0.2
v 0.5 0.1 -0.4
v 0.5 0.2 0.4
v 0.5 0.2 0.2
v 0.5 0.2 -0.2
v 0.5 0.2 -0.4
v 0.6 0.1 0.1
v 0.6 0.1 -0.1
v 0.6 0.2 0.1
v 0.6 0.2 -0.1
v 0.7 0 0.4
v 0.7 0 0.3
v 0.7 0 -0.3
v 0.7 0 -0.4
v 0.7 0.1 0.4
v 0.7 0.1 0.3
v 0.7 0.1 -0.3
v 0.7 0.1 -0.4
v 0.8 0 0.3
v 0.8 0 0.1
v 0.8 0 -0.1
v 0.8 0 -0.3
v 0.8 0.1 0.3
v 0.8 0.1 0.1
v 0.8 0.1 -0.1
v 0.8 0.1 -0.3
v -0.8 0.1 0.4
v -0.8 0.2 0.4
v -0.7 0 0.4
v -0.7 0.1 0.4
v -0.7 0.2 0.4
v -0.7 0.3 0.4
v -0.6 0 0.4
v -0.6 0.1 0.4
v -0.6 0.2 0.4
v -0.6 0.3 0.4
v -0.5 0.1 0.4
v -0.5 0.2 0.4
v 0.2 0.1 0.4
v 0.2 0.2 0.4
v 0.3 0 0.4
v 0.3 0.1 0.4
v 0.3 0.2 0.4
v 0.3 0.3 0.4
v 0.4 0 0.4
v 0.4 0.1 0.4
v 0.4 0.2 0.4
v 0.4 0.3 0.4
v 0.5 0.1 0.4
v 0.5 0.2 0.4
v 0.6 0 0.4
v 0.6 0.1 0.4
v 0.7 0 0.4
v 0.7 0.1 0.4
v 0.7 0 0.3
v 0.7 0.1 0.3
v 0.8 0 0.3
v 0.8 0.1 0.3
v -0.9 0.3 0.2
v -0.9 0.4 0.2
v -0.8 0.3 0.2
v -0.8 0.4 0.2
v -0.5 0 0.2
v -0.5 0.1 0.2
v -0.5 0.2 0.2
v -0.5 0.3 0.2
v -0.1 0.2 0.2
v -0.1 0.3 0.2
v 0.2 0 0.2
v 0.2 0.1 0.2
v 0.2 0.2 0.2
v -0.8 0.2 0.1
v -0.8 0.3 0.1
v -0.7 0.2 0.1
v -0.7 0.3 0.1
v -0.6 0.1 0.1
v -0.6 0.2 0.1
v -0.5 0.1 0.1
v -0.5 0.2 0.1
v 0.2 0 0.1
v 0.2 0.2 0.1
v 0.3 0.1 0.1
v 0.3 0.2 0.1
v 0.4 0.1 0.1
v 0.4 0.2 0.1
v 0.6 0 0.1
v 0.6 0.1 0.1
v 0.6 0.2 0.1
v 0.7 0 0.1
v 0.7 0.1 0.1
v -0.4 0.2 -0.1
v -0.4 0.3 -0.1
v -0.2 0.2 -0.1
v -0.1 0.2 -0.1
v -0.1 0.3 -0.1
v -0.8 0.1 -0.2
v -0.8 0.2 -0.2
v -0.7 0 -0.2
v -0.7 0.1 -0.2
v -0.7 0.2 -0.2
v -0.7 0.3 -0.2
v -0.6 0 -0.2
v -0.6 0.1 -0.2
v -0.6 0.2 -0.2
v -0.6 0.3 -0.2
v -0.5 0.1 -0.2
v -0.5 0.2 -0.2
v 0.2 0.1 -0.2
v 0.2 0.2 -0.2
v 0.3 0 -0.2
v 0.3 0.1 -0.2
v 0.3 0.2 -0.2
v 0.3 0.3 -0.2
v 0.4 0 -0.2
v 0.4 0.1 -0.2
v 0.4 0.2 -0.2
v 0.4 0.3 -0.2
v 0.5 0.1 -0.2
v 0.5 0.2 -0.2
v 0.6 0 -0.3
v 0.6 0.1 -0.3
v 0.7 0 -0.3
v 0.7 0.1 -0.3
v 0.6 0 0.3
v 0.6 0.1 0.3
v 0.7 0 0.3
v 0.7 0.1 0.3
v -0.8 0.1 0.2
v -0.8 0.2 0.2
v -0.7 0 0.2
v -0.7 0.1 0.2
v -0.7 0.2 0.2
v -0.7 0.3 0.2
v -0.6 0 0.2
v -0.6 0.1 0.2
v -0.6 0.2 0.2
v -0.6 0.3 0.2
v -0.5 0.1 0.2
v -0.5 0.2 0.2
v 0.2 0.1 0.2
v 0.2 0.2 0.2
v 0.3 0 0.2
v 0.3 0.1 0.2
v 0.3 0.2 0.2
v 0.3 0.3 0.2
v 0.4 0 0.2
v 0.4 0.1 0.2
v 0.4 0.2 0.2
v 0.4 0.3 0.2
v 0.5 0.1 0.2
v 0.5 0.2 0.2
v -0.4 0.2 0.1
v -0.4 0.3 0.1
v -0.2 0.2 0.1
v -0.1 0.2 0.1
v -0.1 0.3 0.1
v -0.8 0.2 -0.1
v -0.8 0.3 -0.1
v -0.7 0.2 -0.1
v -0.7 0.3 -0.1
v -0.6 0.1 -0.1
v -0.6 0.2 -0.1
v -0.5 0.1 -0.1
v -0.5 0.2 -0.1
v 0.2 0 -0.1
v 0.2 0.2 -0.1
v 0.3 0.1 -0.1
v 0.3 0.2 -0.1
v 0.4 0.1 -0.1
v 0.4 0.2 -0.1
v 0.6 0 -0.1
v 0.6 0.1 -0.1
v 0.6 0.2 -0.1
v 0.7 0 -0.1
v 0.7 0.1 -0.1
v -0.9 0.3 -0.2
v -0.9 0.4 -0.2
v -0.8 0.3 -0.2
v -0.8 0.4 -0.2
v -0.5 0 -0.2
v -0.5 0.1 -0.2
v -0.5 0.2 -0.2
v -0.5 0.3 -0.2
v -0.1 0.2 -0.2
v -0.1 0.3 -0.2
v 0.2 0 -0.2
v 0.2 0.1 -0.2
v 0.2 0.2 -0.2
v 0.7 0 -0.3
v 0.7 0.1 -0.3
v 0.8 0 -0.3
v 0.8 0.1 -0.3
v -0.8 0.1 -0.4
v -0.8 0.2 -0.4
v -0.7 0 -0.4
v -0.7 0.1 -0.4
v -0.7 0.2 -0.4
v -0.7 0.3 -0.4
v -0.6 0 -0.4
v -0.6 0.1 -0.4
v -0.6 0.2 -0.4
v -0.6 0.3 -0.4
v -0.5 0.1 -0.4
v -0.5 0.2 -0.4
v 0.2 0.1 -0.4
v 0.2 0.2 -0.4
v 0.3 0 -0.4
v 0.3 0.1 -0.4
v 0.3 0.2 -0.4
v 0.3 0.3 -0.4
v 0.4 0 -0.4
v 0.4 0.1 -0.4
v 0.4 0.2 -0.4
v 0.4 0.3 -0.4
v 0.5 0.1 -0.4
v 0.5 0.2 -0.4
v 0.6 0 -0.4
v 0.6 0.1 -0.4
v 0.7 0 -0.4
v 0.7 0.1 -0.4
v -0.7 0 0.4
v -0.6 0 0.4
v 0.3 0 0.4
v 0.4 0 0.4
v 0.6 0 0.4
v 0.7 0 0.4
v 0.6 0 0.3
v 0.7 0 0.3
v 0.8 0 0.3
v -0.7 0 0.2
v -0.6 0 0.2
v -0.5 0 0.2
v 0.2 0 0.2
v 0.3 0 0.2
v 0.4 0 0.2
v -0.4 0 0.1
v -0.2 0 0.1
v -0.1 0 0.1
v 0.1 0 0.1
v 0.2 0 0.1
v 0.6 0 0.1
v 0.7 0 0.1
v 0.8 0 0.1
v -0.4 0 -0.1
v -0.2 0 -0.1
v -0.1 0 -0.1
v 0.1 0 -0.1
v 0.2 0 -0.1
v 0.6 0 -0.1
v 0.7 0 -0.1
v 0.8 0 -0.1
v -0.7 0 -0.2
v -0.6 0 -0.2
v -0.5 0 -0.2
v 0.2 0 -0.2
v 0.3 0 -0.2
v 0.4 0 -0.2
v 0.6 0 -0.3
v 0.7 0 -0.3
v 0.8 0 -0.3
v -0.7 0 -0.4
v -0.6 0 -0.4
v 0.3 0 -0.4
v 0.4 0 -0.4
v 0.6 0 -0.4
v 0.7 0 -0.4
v -0.8 0.1 0.4
v -0.7 0.1 0.4
v -0.6 0.1 0.4
v -0.5 0.1 0.4
v 0.2 0.1 0.4
v 0.3 0.1 0.4
v 0.4 0.1 0.4
v 0.5 0.1 0.4
v -0.8 0.1 0.2
v -0.7 0.1 0.2
v -0.6 0.1 0.2
v -0.5 0.1 0.2
v 0.2 0.1 0.2
v 0.3 0.1 0.2
v 0.4 0.1 0.2
v 0.5 0.1 0.2
v -0.7 0.1 0.1
v -0.6 0.1 0.1
v -0.5 0.1 0.1
v 0.3 0.1 0.1
v 0.4 0.1 0.1
v -0.7 0.1 -0.1
v -0.6 0.1 -0.1
v -0.5 0.1 -0.1
v 0.3 0.1 -0.1
v 0.4 0.1 -0.1
v -0.8 0.1 -0.2
v -0.7 0.1 -0.2
v -0.6 0.1 -0.2
v -0.5 0.1 -0.2
v 0.2 0.1 -0.2
v 0.3 0.1 -0.2
v 0.4 0.1 -0.2
v 0.5 0.1 -0.2
v -0.8 0.1 -0.4
v -0.7 0.1 -0.4
v -0.6 0.1 -0.4
v -0.5 0.1 -0.4
v 0.2 0.1 -0.4
v 0.3 0.1 -0.4
v 0.4 0.1 -0.4
v 0.5 0.1 -0.4
v -0.8 0.2 0.1
v -0.7 0.2 0.1
v -0.8 0.2 -0.1
v -0.7 0.2 -0.1
v -0.9 0.3 0.2
v -0.8 0.3 0.2
v -0.9 0.3 0.1
v -0.8 0.3 0.1
v -0.9 0.3 -0.1
v -0.8 0.3 -0.1
v -0.9 0.3 -0.2
v -0.8 0.3 -0.2
v 0.6 0.1 0.4
v 0.7 0.1 0.4
v 0.6 0.1 0.3
v 0.7 0.1 0.3
v 0.8 0.1 0.3
v 0.6 0.1 0.1
v 0.7 0.1 0.1
v 0.8 0.1 0.1
v 0.6 0.1 -0.1
v 0.7 0.1 -0.1
v 0.8 0.1 -0.1
v 0.6 0.1 -0.3
v 0.7 0.1 -0.3
v 0.8 0.1 -0.3
v 0.6 0.1 -0.4
v 0.7 0.1 -0.4
v -0.8 0.2 0.4
v -0.7 0.2 0.4
v -0.6 0.2 0.4
v -0.5 0.2 0.4
v 0.2 0.2 0.4
v 0.3 0.2 0.4
v 0.4 0.2 0.4
v 0.5 0.2 0.4
v -0.8 0.2 0.2
v -0.7 0.2 0.2
v -0.6 0.2 0.2
v -0.5 0.2 0.2
v -0.1 0.2 0.2
v 0.2 0.2 0.2
v 0.3 0.2 0.2
v 0.4 0.2 0.2
v 0.5 0.2 0.2
v -0.7 0.2 0.1
v -0.6 0.2 0.1
v -0.5 0.2 0.1
v -0.4 0.2 0.1
v -0.2 0.2 0.1
v -0.1 0.2 0.1
v 0.1 0.2 0.1
v 0.2 0.2 0.1
v 0.3 0.2 0.1
v 0.4 0.2 0.1
v 0.6 0.2 0.1
v -0.7 0.2 -0.1
v -0.6 0.2 -0.1
v -0.5 0.2 -0.1
v -0.4 0.2 -0.1
v -0.2 0.2 -0.1
v -0.1 0.2 -0.1
v 0.1 0.2 -0.1
v 0.2 0.2 -0.1
v 0.3 0.2 -0.1
v 0.4 0.2 -0.1
v 0.6 0.2 -0.1
v -0.8 0.2 -0.2
v -0.7 0.2 -0.2
v -0.6 0.2 -0.2
v -0.5 0.2 -0.2
v -0.1 0.2 -0.2
v 0.2 0.2 -0.2
v 0.3 0.2 -0.2
v 0.4 0.2 -0.2
v 0.5 0.2 -0.2
v -0.8 0.2 -0.4
v -0.7 0.2 -0.4
v -0.6 0.2 -0.4
v -0.5 0.2 -0.4
v 0.2 0.2 -0.4
v 0.3 0.2 -0.4
v 0.4 0.2 -0.4
v 0.5 0.2 -0.4
v -0.7 0.3 0.4
v -0.6 0.3 0.4
v 0.3 0.3 0.4
v 0.4 0.3 0.4
v -0.7 0.3 0.2
v -0.6 0.3 0.2
v -0.5 0.3 0.2
v -0.1 0.3 0.2
v 0.3 0.3 0.2
v 0.4 0.3 0.2
v -0.8 0.3 0.1
v -0.7 0.3 0.1
v -0.4 0.3 0.1
v -0.1 0.3 0.1
v -0.8 0.3 -0.1
v -0.7 0.3 -0.1
v -0.4 0.3 -0.1
v -0.1 0.3 -0.1
v -0.7 0.3 -0.2
v -0.6 0.3 -0.2
v -0.5 0.3 -0.2
v -0.1 0.3 -0.2
v 0.3 0.3 -0.2
v 0.4 0.3 -0.2
v -0.7 0.3 -0.4
v -0.6 0.3 -0.4
v 0.3 0.3 -0.4
v 0.4 0.3 -0.4
v -0.9 0.4 0.2
v -0.8 0.4 0.2
v -0.9 0.4 0.1
v -0.8 0.4 0.1
v -0.9 0.4 -0.1
v -0.8 0.4 -0.1
v -0.9 0.4 -0.2
v -0.8 0.4 -0.2

# faces
f 5/2/1 2/2/1 1/2/1
f 6/1/1 3/1/1 2/1/1
f 6/2/1 2/2/1 5/2/1
f 7/2/1 4/2/1 3/2/1
f 7/1/1 3/1/1 6/1/1
f 8/2/1 4/2/1 7/2/1
f 13/1/1 10/1/1 9/1/1
f 14/1/1 10/1/1 13/1/1
f 17/1/1 12/1/1 11/1/1
f 18/1/1 12/1/1 17/1/1
f 19/2/1 16/2/1 15/2/1
f 20/2/1 16/2/1 19/2/1
f 25/1/1 22/1/1 21/1/1
f 26/1/1 22/1/1 25/1/1
f 29/1/1 24/1/1 23/1/1
f 30/1/1 24/1/1 29/1/1
f 32/1/1 27/1/1 26/1/1
f 33/2/1 28/2/1 27/2/1
f 33/1/1 27/1/1 32/1/1
f 34/1/1 29/1/1 28/1/1
f 34/2/1 28/2/1 33/2/1
f 35/1/1 29/1/1 34/1/1
f 37/1/1 32/1/1 31/1/1
f 38/1/1 32/1/1 37/1/1
f 39/1/1 36/1/1 35/1/1
f 40/1/1 36/1/1 39/1/1
f 43/2/1 42/2/1 41/2/1
f 44/2/1 42/2/1 43/2/1
f 45/2/1 42/2/1 44/2/1
f 46/2/1 42/2/1 45/2/1
f 47/2/1 44/2/1 43/2/1
f 48/2/1 44/2/1 47/2/1
f 49/2/1 46/2/1 45/2/1
f 50/2/1 46/2/1 49/2/1
f 51/2/1 48/2/1 47/2/1
f 51/2/1 49/2/1 48/2/1
f 51/2/1 50/2/1 49/2/1
f 52/2/1 50/2/1 51/2/1
f 57/1/1 54/1/1 53/1/1
f 58/1/1 54/1/1 57/1/1
f 59/1/1 56/1/1 55/1/1
f 60/1/1 56/1/1 59/1/1
f 65/1/1 62/1/1 61/1/1
f 66/1/1 62/1/1 65/1/1
f 69/1/1 64/1/1 63/1/1
f 70/1/1 64/1/1 69/1/1
f 72/1/1 67/1/1 66/1/1
f 73/1/1 67/1/1 72/1/1
f 74/1/1 69/1/1 68/1/1
f 75/1/1 69/1/1 74/1/1
f 77/1/1 72/1/1 71/1/1
f 78/1/1 72/1/1 77/1/1
f 79/1/1 76/1/1 75/1/1
f 80/1/1 76/1/1 79/1/1
f 85/2/1 82/2/1 81/2/1
f 86/2/1 82/2/1 85/2/1
f 87/2/1 84/2/1 83/2/1
f 88/2/1 84/2/1 87/2/1
f 93/2/1 90/2/1 89/2/1
f 94/2/1 90/2/1 93/2/1
f 95/2/1 92/2/1 91/2/1
f 96/2/1 92/2/1 95/2/1
f 97/2/2 98/2/2 101/2/2
f 98/1/2 99/1/2 102/1/2
f 101/2/2 98/2/2 102/2/2
f 99/2/2 100/2/2 103/2/2
f 102/1/2 99/1/2 103/1/2
f 103/2/2 100/2/2 104/2/2
f 105/2/2 106/2/2 107/2/2
f 107/2/2 106/2/2 108/2/2
f 109/1/2 110/1/2 113/1/2
f 113/1/2 110/1/2 114/1/2
f 111/1/2 112/1/2 117/1/2
f 117/1/2 112/1/2 118/1/2
f 114/1/2 115/1/2 120/1/2
f 120/1/2 115/1/2 121/1/2
f 116/1/2 117/1/2 122/1/2
f 122/1/2 117/1/2 123/1/2
f 119/1/2 120/1/2 125/1/2
f 125/1/2 120/1/2 126/1/2
f 123/1/2 124/1/2 127/1/2
f 127/1/2 124/1/2 128/1/2
f 129/1/2 130/1/2 133/1/2
f 133/1/2 130/1/2 134/1/2
f 131/1/2 132/1/2 135/1/2
f 135/1/2 132/1/2 136/1/2
f 137/2/2 138/2/2 139/2/2
f 139/2/2 138/2/2 140/2/2
f 141/2/2 142/2/2 145/2/2
f 145/2/2 142/2/2 146/2/2
f 143/2/2 144/2/2 147/2/2
f 147/2/2 144/2/2 148/2/2
f 149/2/2 150/2/2 153/2/2
f 151/2/2 152/2/2 154/2/2
f 153/2/2 150/2/2 155/2/2
f 155/2/2 150/2/2 156/2/2
f 151/2/2 154/2/2 157/2/2
f 157/2/2 154/2/2 158/2/2
f 159/1/2 160/1/2 163/1/2
f 163/1/2 160/1/2 164/1/2
f 161/1/2 162/1/2 167/1/2
f 167/1/2 162/1/2 168/1/2
f 164/1/2 165/1/2 170/1/2
f 170/1/2 165/1/2 171/1/2
f 166/1/2 167/1/2 172/1/2
f 172/1/2 167/1/2 173/1/2
f 169/1/2 170/1/2 175/1/2
f 175/1/2 170/1/2 176/1/2
f 173/1/2 174/1/2 177/1/2
f 177/1/2 174/1/2 178/1/2
f 179/1/2 180/1/2 183/1/2
f 183/1/2 180/1/2 184/1/2
f 181/1/2 182/1/2 185/1/2
f 185/1/2 182/1/2 186/1/2
f 187/2/2 188/2/2 189/2/2
f 189/2/2 188/2/2 190/2/2
f 191/2/2 192/2/2 195/2/2
f 195/2/2 192/2/2 196/2/2
f 193/2/2 194/2/2 197/2/2
f 197/2/2 194/2/2 198/2/2
f 199/2/2 200/2/2 203/2/2
f 200/1/2 201/1/2 204/1/2
f 203/2/2 200/2/2 204/2/2
f 201/2/2 202/2/2 205/2/2
f 204/1/2 201/1/2 205/1/2
f 205/2/2 202/2/2 206/2/2
f 210/1/3 208/1/3 207/1/3
f 211/1/3 208/1/3 210/1/3
f 213/1/3 210/1/3 209/1/3
f 213/1/3 212/1/3 211/1/3
f 213/1/3 211/1/3 210/1/3
f 214/1/3 212/1/3 213/1/3
f 215/1/3 212/1/3 214/1/3
f 216/1/3 212/1/3 215/1/3
f 217/1/3 215/1/3 214/1/3
f 218/1/3 215/1/3 217/1/3
f 222/1/3 220/1/3 219/1/3
f 223/1/3 220/1/3 222/1/3
f 225/1/3 223/1/3 222/1/3
f 225/1/3 224/1/3 223/1/3
f 225/1/3 222/1/3 221/1/3
f 226/1/3 224/1/3 225/1/3
f 227/1/3 224/1/3 226/1/3
f 228/1/3 224/1/3 227/1/3
f 229/1/3 227/1/3 226/1/3
f 230/1/3 227/1/3 229/1/3
f 233/2/3 232/2/3 231/2/3
f 234/2/3 232/2/3 233/2/3
f 237/2/3 236/2/3 235/2/3
f 238/2/3 236/2/3 237/2/3
f 241/2/3 240/2/3 239/2/3
f 242/2/3 240/2/3 241/2/3
f 247/2/3 244/2/3 243/2/3
f 247/2/3 246/2/3 245/2/3
f 247/2/3 245/2/3 244/2/3
f 248/2/3 246/2/3 247/2/3
f 249/2/3 247/2/3 243/2/3
f 250/2/3 247/2/3 249/2/3
f 251/2/3 247/2/3 250/2/3
f 254/2/3 253/2/3 252/2/3
f 255/2/3 253/2/3 254/2/3
f 258/2/3 257/2/3 256/2/3
f 259/2/3 257/2/3 258/2/3
f 262/2/3 261/2/3 260/2/3
f 263/2/3 261/2/3 262/2/3
f 264/2/3 262/2/3 260/2/3
f 266/2/3 264/2/3 260/2/3
f 266/2/3 265/2/3 264/2/3
f 267/2/3 265/2/3 266/2/3
f 268/2/3 265/2/3 267/2/3
f 269/1/3 267/1/3 266/1/3
f 270/1/3 267/1/3 269/1/3
f 273/2/3 272/2/3 271/2/3
f 274/2/3 272/2/3 273/2/3
f 275/2/3 272/2/3 274/2/3
f 279/1/3 277/1/3 276/1/3
f 280/1/3 277/1/3 279/1/3
f 282/1/3 279/1/3 278/1/3
f 283/1/3 279/1/3 282/1/3
f 284/1/3 281/1/3 280/1/3
f 285/1/3 281/1/3 284/1/3
f 286/1/3 284/1/3 283/1/3
f 287/1/3 284/1/3 286/1/3
f 291/1/3 289/1/3 288/1/3
f 292/1/3 289/1/3 291/1/3
f 294/1/3 291/1/3 290/1/3
f 295/1/3 291/1/3 294/1/3
f 296/1/3 293/1/3 292/1/3
f 297/1/3 293/1/3 296/1/3
f 298/1/3 296/1/3 295/1/3
f 299/1/3 296/1/3 298/1/3
f 302/2/3 301/2/3 300/2/3
f 303/2/3 301/2/3 302/2/3
f 304/2/4 305/2/4 306/2/4
f 306/2/4 305/2/4 307/2/4
f 308/1/4 309/1/4 311/1/4
f 311/1/4 309/1/4 312/1/4
f 310/1/4 311/1/4 314/1/4
f 314/1/4 311/1/4 315/1/4
f 312/1/4 313/1/4 316/1/4
f 316/1/4 313/1/4 317/1/4
f 315/1/4 316/1/4 318/1/4
f 318/1/4 316/1/4 319/1/4
f 320/1/4 321/1/4 323/1/4
f 323/1/4 321/1/4 324/1/4
f 322/1/4 323/1/4 326/1/4
f 326/1/4 323/1/4 327/1/4
f 324/1/4 325/1/4 328/1/4
f 328/1/4 325/1/4 329/1/4
f 327/1/4 328/1/4 330/1/4
f 330/1/4 328/1/4 331/1/4
f 332/2/4 333/2/4 334/2/4
f 334/2/4 333/2/4 335/2/4
f 335/2/4 333/2/4 336/2/4
f 337/2/4 338/2/4 339/2/4
f 339/2/4 338/2/4 340/2/4
f 341/2/4 342/2/4 343/2/4
f 343/2/4 342/2/4 344/2/4
f 345/2/4 346/2/4 347/2/4
f 347/2/4 346/2/4 348/2/4
f 345/2/4 347/2/4 349/2/4
f 345/2/4 349/2/4 351/2/4
f 349/2/4 350/2/4 351/2/4
f 351/2/4 350/2/4 352/2/4
f 352/2/4 350/2/4 353/2/4
f 351/1/4 352/1/4 354/1/4
f 354/1/4 352/1/4 355/1/4
f 356/2/4 357/2/4 358/2/4
f 358/2/4 357/2/4 359/2/4
f 360/2/4 361/2/4 364/2/4
f 362/2/4 363/2/4 364/2/4
f 361/2/4 362/2/4 364/2/4
f 364/2/4 363/2/4 365/2/4
f 360/2/4 364/2/4 366/2/4
f 366/2/4 364/2/4 367/2/4
f 367/2/4 364/2/4 368/2/4
f 369/2/4 370/2/4 371/2/4
f 371/2/4 370/2/4 372/2/4
f 373/1/4 374/1/4 376/1/4
f 376/1/4 374/1/4 377/1/4
f 375/1/4 376/1/4 379/1/4
f 377/1/4 378/1/4 379/1/4
f 376/1/4 377/1/4 379/1/4
f 379/1/4 378/1/4 380/1/4
f 380/1/4 378/1/4 381/1/4
f 381/1/4 378/1/4 382/1/4
f 380/1/4 381/1/4 383/1/4
f 383/1/4 381/1/4 384/1/4
f 385/1/4 386/1/4 388/1/4
f 388/1/4 386/1/4 389/1/4
f 388/1/4 389/1/4 391/1/4
f 389/1/4 390/1/4 391/1/4
f 387/1/4 388/1/4 391/1/4
f 391/1/4 390/1/4 392/1/4
f 392/1/4 390/1/4 393/1/4
f 393/1/4 390/1/4 394/1/4
f 392/1/4 393/1/4 395/1/4
f 395/1/4 393/1/4 396/1/4
f 397/2/4 398/2/4 399/2/4
f 399/2/4 398/2/4 400/2/4
f 407/2/5 406/2/5 405/2/5
f 408/2/5 406/2/5 407/2/5
f 410/1/5 402/1/5 401/1/5
f 411/1/5 402/1/5 410/1/5
f 414/1/5 404/1/5 403/1/5
f 415/1/5 404/1/5 414/1/5
f 416/2/5 413/2/5 412/2/5
f 417/2/5 413/2/5 416/2/5
f 418/2/5 413/2/5 417/2/5
f 419/2/5 413/2/5 418/2/5
f 420/2/5 413/2/5 419/2/5
f 422/2/5 409/2/5 408/2/5
f 423/2/5 409/2/5 422/2/5
f 424/2/5 416/2/5 412/2/5
f 424/4/5 417/4/5 416/4/5
f 425/3/5 418/3/5 417/3/5
f 425/4/5 417/4/5 424/4/5
f 426/4/5 419/4/5 418/4/5
f 426/3/5 418/3/5 425/3/5
f 427/2/5 421/2/5 420/2/5
f 427/4/5 419/4/5 426/4/5
f 427/2/5 420/2/5 419/2/5
f 428/2/5 421/2/5 427/2/5
f 429/1/5 422/1/5 421/1/5
f 429/2/5 421/2/5 428/2/5
f 429/1/5 423/1/5 422/1/5
f 430/1/5 423/1/5 429/1/5
f 431/1/5 423/1/5 430/1/5
f 434/2/5 426/2/5 425/2/5
f 434/2/5 428/2/5 427/2/5
f 434/2/5 427/2/5 426/2/5
f 434/2/5 424/2/5 412/2/5
f 434/2/5 425/2/5 424/2/5
f 435/2/5 428/2/5 434/2/5
f 439/2/5 431/2/5 430/2/5
f 440/2/5 431/2/5 439/2/5
f 441/1/5 433/1/5 432/1/5
f 442/1/5 433/1/5 441/1/5
f 443/1/5 437/1/5 436/1/5
f 444/1/5 437/1/5 443/1/5
f 445/2/5 439/2/5 438/2/5
f 446/2/5 439/2/5 445/2/5
f 455/1/5 448/1/5 447/1/5
f 456/1/5 448/1/5 455/1/5
f 457/1/5 450/1/5 449/1/5
f 458/1/5 450/1/5 457/1/5
f 459/1/5 452/1/5 451/1/5
f 460/1/5 452/1/5 459/1/5
f 461/1/5 454/1/5 453/1/5
f 462/1/5 454/1/5 461/1/5
f 463/1/5 457/1/5 456/1/5
f 464/1/5 457/1/5 463/1/5
f 466/1/5 461/1/5 460/1/5
f 467/1/5 461/1/5 466/1/5
f 468/2/5 465/2/5 464/2/5
f 468/2/5 464/2/5 463/2/5
f 469/2/5 465/2/5 468/2/5
f 470/2/5 465/2/5 469/2/5
f 474/1/5 469/1/5 468/1/5
f 475/1/5 469/1/5 474/1/5
f 478/1/5 472/1/5 471/1/5
f 479/1/5 472/1/5 478/1/5
f 481/1/5 474/1/5 473/1/5
f 482/1/5 474/1/5 481/1/5
f 483/1/5 476/1/5 475/1/5
f 484/1/5 476/1/5 483/1/5
f 485/1/5 478/1/5 477/1/5
f 486/1/5 478/1/5 485/1/5
f 487/1/5 480/1/5 479/1/5
f 488/1/5 480/1/5 487/1/5
f 491/2/5 490/2/5 489/2/5
f 492/2/5 490/2/5 491/2/5
f 495/2/5 494/2/5 493/2/5
f 496/2/5 494/2/5 495/2/5
f 497/1/5 496/1/5 495/1/5
f 498/1/5 496/1/5 497/1/5
f 499/2/5 498/2/5 497/2/5
f 500/2/5 498/2/5 499/2/5
f 501/2/6 502/2/6 503/2/6
f 503/2/6 502/2/6 504/2/6
f 504/2/6 505/2/6 507/2/6
f 507/2/6 505/2/6 508/2/6
f 506/1/6 507/1/6 509/1/6
f 507/1/6 508/1/6 509/1/6
f 509/1/6 508/1/6 510/1/6
f 510/1/6 508/1/6 511/1/6
f 510/2/6 511/2/6 513/2/6
f 513/2/6 511/2/6 514/2/6
f 512/2/6 513/2/6 515/2/6
f 515/2/6 513/2/6 516/2/6
f 517/1/6 518/1/6 525/1/6
f 525/1/6 518/1/6 526/1/6
f 519/1/6 520/1/6 527/1/6
f 527/1/6 520/1/6 528/1/6
f 521/1/6 522/1/6 530/1/6
f 530/1/6 522/1/6 531/1/6
f 523/1/6 524/1/6 532/1/6
f 532/1/6 524/1/6 533/1/6
f 526/1/6 527/1/6 534/1/6
f 534/1/6 527/1/6 535/1/6
f 529/2/6 530/2/6 539/2/6
f 539/2/6 530/2/6 540/2/6
f 540/2/6 530/2/6 541/2/6
f 531/1/6 532/1/6 542/1/6
f 542/1/6 532/1/6 543/1/6
f 534/2/6 535/2/6 545/2/6
f 535/2/6 536/2/6 545/2/6
f 545/2/6 536/2/6 546/2/6
f 546/2/6 536/2/6 547/2/6
f 537/1/6 538/1/6 548/1/6
f 538/3/6 539/3/6 549/3/6
f 548/1/6 538/1/6 549/1/6
f 539/1/6 540/1/6 550/1/6
f 549/3/6 539/3/6 550/3/6
f 542/2/6 543/2/6 551/2/6
f 550/1/6 540/1/6 551/1/6
f 540/2/6 541/2/6 551/2/6
f 543/2/6 544/2/6 551/2/6
f 541/2/6 542/2/6 551/2/6
f 551/2/6 544/2/6 552/2/6
f 552/2/6 544/2/6 553/2/6
f 553/2/6 544/2/6 554/2/6
f 554/2/6 544/2/6 555/2/6
f 545/1/6 546/1/6 557/1/6
f 557/1/6 546/1/6 558/1/6
f 550/2/6 551/2/6 560/2/6
f 551/2/6 552/2/6 560/2/6
f 560/2/6 552/2/6 561/2/6
f 553/1/6 554/1/6 562/1/6
f 562/1/6 554/1/6 563/1/6
f 556/1/6 557/1/6 565/1/6
f 565/1/6 557/1/6 566/1/6
f 558/1/6 559/1/6 567/1/6
f 567/1/6 559/1/6 568/1/6
f 561/1/6 562/1/6 569/1/6
f 569/1/6 562/1/6 570/1/6
f 563/1/6 564/1/6 571/1/6
f 571/1/6 564/1/6 572/1/6
f 573/1/6 574/1/6 577/1/6
f 577/1/6 574/1/6 578/1/6
f 575/1/6 576/1/6 581/1/6
f 581/1/6 576/1/6 582/1/6
f 579/2/6 580/2/6 585/2/6
f 585/2/6 580/2/6 586/2/6
f 583/2/6 584/2/6 587/2/6
f 587/2/6 584/2/6 588/2/6
f 579/2/6 585/2/6 589/2/6
f 589/2/6 590/2/6 593/2/6
f 579/2/6 589/2/6 593/2/6
f 593/2/6 590/2/6 594/2/6
f 591/1/6 592/1/6 597/1/6
f 597/1/6 592/1/6 598/1/6
f 595/1/6 596/1/6 599/1/6
f 599/1/6 596/1/6 600/1/6
f 601/2/6 602/2/6 603/2/6
f 603/2/6 602/2/6 604/2/6
f 603/1/6 604/1/6 605/1/6
f 605/1/6 604/1/6 606/1/6
f 605/2/6 606/2/6 607/2/6
f 607/2/6 606/2/6 608/2/6
